<svg width="100%" height="100%" viewBox="0 0 10 10" fill="none" xmlns="http://www.w3.org/2000/svg">
<g id="vuesax/outline/sms">
<g id="sms">
<path id="Vector" d="M7.08301 8.85384H2.91634C1.39551 8.85384 0.520508 7.97884 0.520508 6.45801V3.54134C0.520508 2.02051 1.39551 1.14551 2.91634 1.14551H7.08301C8.60384 1.14551 9.47884 2.02051 9.47884 3.54134V6.45801C9.47884 7.97884 8.60384 8.85384 7.08301 8.85384ZM2.91634 1.77051C1.72467 1.77051 1.14551 2.34967 1.14551 3.54134V6.45801C1.14551 7.64967 1.72467 8.22884 2.91634 8.22884H7.08301C8.27467 8.22884 8.85384 7.64967 8.85384 6.45801V3.54134C8.85384 2.34967 8.27467 1.77051 7.08301 1.77051H2.91634Z" fill="black"/>
<path id="Vector_2" d="M4.9995 5.36297C4.6495 5.36297 4.29534 5.25464 4.0245 5.03381L2.72033 3.99214C2.587 3.88381 2.562 3.68798 2.67034 3.55464C2.77867 3.42131 2.9745 3.39631 3.10784 3.50464L4.412 4.54631C4.72867 4.80048 5.26616 4.80048 5.58283 4.54631L6.887 3.50464C7.02033 3.39631 7.22033 3.41714 7.3245 3.55464C7.43283 3.68798 7.412 3.88798 7.2745 3.99214L5.97033 5.03381C5.70367 5.25464 5.3495 5.36297 4.9995 5.36297Z" fill="black"/>
</g>
</g>
</svg>
