<svg width="100%" height="100%" viewBox="0 0 10 10" fill="none" xmlns="http://www.w3.org/2000/svg">
<g id="vuesax/linear/trush-square">
<path id="Vector" fill-rule="evenodd" clip-rule="evenodd" d="M1.2901 1.2901C1.84613 0.734068 2.67816 0.521484 3.75065 0.521484H6.25065C7.32314 0.521484 8.15518 0.734068 8.71121 1.2901C9.26723 1.84613 9.47982 2.67816 9.47982 3.75065V6.25065C9.47982 7.32314 9.26723 8.15518 8.71121 8.71121C8.15518 9.26723 7.32314 9.47982 6.25065 9.47982H3.75065C2.67816 9.47982 1.84613 9.26723 1.2901 8.71121C0.734068 8.15518 0.521484 7.32314 0.521484 6.25065V3.75065C0.521484 2.67816 0.734068 1.84613 1.2901 1.2901ZM1.73204 1.73204C1.35057 2.11351 1.14648 2.73981 1.14648 3.75065V6.25065C1.14648 7.2615 1.35057 7.88779 1.73204 8.26926C2.11351 8.65073 2.73981 8.85482 3.75065 8.85482H6.25065C7.2615 8.85482 7.88779 8.65073 8.26926 8.26926C8.65073 7.88779 8.85482 7.2615 8.85482 6.25065V3.75065C8.85482 2.73981 8.65073 2.11351 8.26926 1.73204C7.88779 1.35057 7.2615 1.14648 6.25065 1.14648H3.75065C2.73981 1.14648 2.11351 1.35057 1.73204 1.73204ZM4.44079 3.04679C4.43132 3.07875 4.42426 3.1189 4.41317 3.18768L4.39085 3.32477C4.50096 3.32244 4.61112 3.32126 4.72132 3.32126C5.01797 3.32126 5.31506 3.32605 5.61217 3.33562L5.58807 3.1893C5.5769 3.12228 5.5699 3.08287 5.56035 3.05089C5.55564 3.03511 5.55185 3.02685 5.5499 3.02319C5.53634 3.01554 5.48765 2.99626 5.35882 2.99626H4.64215C4.51446 2.99626 4.46456 3.01436 4.44985 3.02195C4.44793 3.02591 4.44471 3.03358 4.44079 3.04679ZM4.44475 3.02523C4.44475 3.02523 4.44541 3.02448 4.4473 3.02335C4.44579 3.02473 4.44475 3.02523 4.44475 3.02523ZM5.55422 3.02626C5.55422 3.02626 5.55306 3.02569 5.55141 3.02408C5.55351 3.02538 5.55422 3.02626 5.55422 3.02626ZM6.25019 3.36356C6.66444 3.3865 7.07815 3.41875 7.49019 3.46034C7.66191 3.47767 7.78707 3.63092 7.76974 3.80263C7.75241 3.97435 7.59916 4.09951 7.42744 4.08218C7.34104 4.07346 7.25456 4.06516 7.16802 4.05728L7.00399 6.5749L7.00393 6.57578L7.00349 6.58234C6.9966 6.68376 6.98848 6.80343 6.96588 6.91619C6.94215 7.0346 6.89873 7.16725 6.80666 7.28713C6.61135 7.54141 6.28815 7.62959 5.87549 7.62959H4.12132C3.70866 7.62959 3.38546 7.54141 3.19015 7.28713C3.09808 7.16725 3.05466 7.0346 3.03093 6.9162C3.00832 6.80343 3.0002 6.68375 2.99331 6.58234L2.99287 6.57578L2.99281 6.5749L2.82879 4.05741L2.57233 4.0823C2.40055 4.09896 2.24778 3.97322 2.23112 3.80143C2.21445 3.62965 2.3402 3.47688 2.51198 3.46022L3.06915 3.40616L3.06969 3.40611C3.29683 3.38323 3.52482 3.36472 3.75337 3.35089L3.79614 3.08816C3.79719 3.08167 3.7983 3.07459 3.79944 3.06731C3.81675 2.95661 3.84759 2.75942 3.98078 2.60776C4.14067 2.42569 4.37755 2.37126 4.64215 2.37126H5.35882C5.62711 2.37126 5.86293 2.42951 6.02148 2.61237C6.15244 2.7634 6.18381 2.95798 6.20112 3.06539C6.20233 3.07288 6.20346 3.07995 6.20456 3.08655L6.20466 3.08714L6.25019 3.36356ZM3.45131 3.99889L3.61643 6.5334L3.61646 6.53388C3.62405 6.64542 3.63013 6.72547 3.64374 6.79337C3.65673 6.85817 3.67268 6.88932 3.68582 6.90642C3.70093 6.9261 3.77148 7.00459 4.12132 7.00459H5.87549C6.22533 7.00459 6.29587 6.9261 6.31098 6.90642C6.32412 6.88932 6.34008 6.85817 6.35306 6.79337C6.36667 6.72546 6.37276 6.6454 6.38034 6.53383L6.38037 6.5334L6.54492 4.00786C5.93772 3.96679 5.32859 3.94626 4.72132 3.94626C4.29774 3.94626 3.87372 3.96447 3.45131 3.99889Z" fill="black"/>
</g>
</svg>
